<svg width="50" height="50" viewBox="0 0 50 50" fill="none" xmlns="http://www.w3.org/2000/svg">
<path d="M25 0C38.8075 0 50 11.1925 50 25C50 38.8075 38.8075 50 25 50C11.1925 50 0 38.8075 0 25C0 11.1925 11.1925 0 25 0ZM36.105 15C35.1525 15.0175 33.69 15.5175 26.6575 18.405C21.7212 20.4658 16.7986 22.5591 11.89 24.685C10.69 25.1575 10.065 25.6175 10.0075 26.0675C9.8975 26.9325 11.1575 27.2 12.7425 27.71C14.035 28.125 15.775 28.61 16.68 28.63C17.5 28.6475 18.415 28.3125 19.425 27.63C26.325 23.03 29.8825 20.7075 30.1075 20.6575C30.265 20.6225 30.4825 20.5775 30.6325 20.7075C30.78 20.8375 30.765 21.0825 30.7475 21.15C30.6225 21.6775 24.145 27.495 23.7725 27.8775L23.5925 28.0575C22.2175 29.415 20.83 30.3025 23.225 31.86C25.39 33.2675 26.65 34.165 28.875 35.61C30.3 36.53 31.4175 37.6225 32.8875 37.49C33.565 37.4275 34.2625 36.8 34.62 34.925C35.4575 30.5 37.1075 20.905 37.4875 16.95C37.5105 16.6219 37.4962 16.2923 37.445 15.9675C37.4142 15.7052 37.2856 15.4642 37.085 15.2925C36.7825 15.0475 36.3125 14.9975 36.105 15Z" fill="#6943FF"/>
</svg>
