<svg width="50" height="50" viewBox="0 0 50 50" fill="none" xmlns="http://www.w3.org/2000/svg">
<g clip-path="url(#clip0_30_358)">
<path d="M25 0C18.2047 0 17.3578 0.0328125 14.6984 0.145313C12.0281 0.276563 10.2219 0.690625 8.62811 1.30938C6.96008 1.93909 5.44946 2.92502 4.20155 4.19844C2.92459 5.44343 1.93811 6.95489 1.31249 8.625C0.693738 10.2188 0.279675 12.025 0.148425 14.6953C0.0281128 17.3562 0.00311279 18.2016 0.00311279 24.9969C0.00311279 31.7922 0.0359253 32.6391 0.148425 35.2984C0.279675 37.9609 0.693738 39.775 1.31249 41.3688C1.94221 43.0368 2.92814 44.5474 4.20155 45.7953C5.44655 47.0723 6.95801 48.0588 8.62811 48.6844C10.2219 49.2953 12.0359 49.7172 14.6984 49.8484C17.3594 49.9688 18.2047 49.9938 25 49.9938C31.7953 49.9938 32.6422 49.9609 35.3015 49.8484C37.9641 49.7172 39.7781 49.2938 41.3719 48.6844C43.0399 48.0547 44.5505 47.0687 45.7984 45.7953C47.077 44.5517 48.0638 43.0398 48.6875 41.3688C49.2984 39.775 49.7203 37.9609 49.8516 35.2984C49.9719 32.6375 49.9969 31.7922 49.9969 24.9969C49.9969 18.2016 49.9641 17.3547 49.8516 14.6953C49.7203 12.0328 49.2969 10.2094 48.6875 8.625C48.0578 6.95697 47.0718 5.44635 45.7984 4.19844C44.5548 2.91983 43.0429 1.93309 41.3719 1.30938C39.7781 0.690625 37.9641 0.276563 35.3015 0.145313C32.6406 0.025 31.7953 0 25 0ZM25 4.5C31.6734 4.5 32.4703 4.53281 35.1078 4.64531C37.5406 4.75938 38.8656 5.16563 39.7453 5.50938C40.8328 5.91082 41.8172 6.54977 42.6265 7.37969C43.4551 8.18567 44.0916 9.16773 44.489 10.2531C44.8328 11.1328 45.239 12.4578 45.3531 14.8906C45.4656 17.5281 45.4984 18.3266 45.4984 24.9984C45.4984 31.6703 45.4656 32.4688 45.3437 35.1063C45.2125 37.5391 44.8062 38.8641 44.4641 39.7438C43.9906 40.9172 43.4625 41.7375 42.5906 42.625C41.7785 43.4497 40.7948 44.0856 39.7094 44.4875C38.8406 44.8312 37.4969 45.2375 35.0547 45.3516C32.4031 45.4641 31.6219 45.4969 24.9312 45.4969C18.2406 45.4969 17.4609 45.4641 14.8062 45.3422C12.3734 45.2109 11.0312 44.8047 10.1516 44.4625C8.96405 43.9891 8.14999 43.4609 7.27811 42.5891C6.39843 41.7094 5.83905 40.8719 5.4078 39.7078C5.0578 38.8391 4.6578 37.4953 4.52811 35.0531C4.43905 32.4328 4.39686 31.6203 4.39686 24.9609C4.39686 18.3047 4.43905 17.4906 4.52811 14.8375C4.6578 12.3953 5.0578 11.0547 5.4078 10.1828C5.83905 8.99375 6.39999 8.18125 7.27811 7.30156C8.14843 6.43125 8.96405 5.86875 10.1516 5.42812C11.0312 5.08594 12.3406 4.67969 14.7828 4.55781C17.4344 4.4625 18.2156 4.42813 24.8969 4.42813L25 4.5ZM25 12.1672C23.3146 12.1666 21.6456 12.4981 20.0884 13.1428C18.5311 13.7875 17.1162 14.7327 15.9244 15.9245C14.7327 17.1162 13.7875 18.5311 13.1428 20.0884C12.4981 21.6456 12.1666 23.3146 12.1672 25C12.1666 26.6854 12.4981 28.3544 13.1428 29.9116C13.7875 31.4689 14.7327 32.8838 15.9244 34.0755C17.1162 35.2673 18.5311 36.2125 20.0884 36.8572C21.6456 37.5019 23.3146 37.8334 25 37.8328C26.6854 37.8334 28.3544 37.5019 29.9116 36.8572C31.4688 36.2125 32.8838 35.2673 34.0755 34.0755C35.2673 32.8838 36.2125 31.4689 36.8572 29.9116C37.5019 28.3544 37.8334 26.6854 37.8328 25C37.8334 23.3146 37.5019 21.6456 36.8572 20.0884C36.2125 18.5311 35.2673 17.1162 34.0755 15.9245C32.8838 14.7327 31.4688 13.7875 29.9116 13.1428C28.3544 12.4981 26.6854 12.1666 25 12.1672ZM25 33.3328C20.3937 33.3328 16.6672 29.6063 16.6672 25C16.6672 20.3937 20.3937 16.6672 25 16.6672C29.6062 16.6672 33.3328 20.3937 33.3328 25C33.3328 29.6063 29.6062 33.3328 25 33.3328ZM41.35 11.6547C41.3492 12.451 41.0322 13.2145 40.4688 13.7773C39.9054 14.3401 39.1417 14.6563 38.3453 14.6562C37.9515 14.6562 37.5616 14.5787 37.1978 14.428C36.8341 14.2773 36.5035 14.0565 36.2251 13.778C35.9467 13.4996 35.7258 13.1691 35.5751 12.8053C35.4244 12.4415 35.3469 12.0516 35.3469 11.6578C35.3469 11.2641 35.4244 10.8741 35.5751 10.5104C35.7258 10.1466 35.9467 9.81603 36.2251 9.5376C36.5035 9.25917 36.8341 9.0383 37.1978 8.88762C37.5616 8.73693 37.9515 8.65937 38.3453 8.65937C39.9969 8.65938 41.35 10.0031 41.35 11.6547Z" fill="#6943FF"/>
</g>
<defs>
<clipPath id="clip0_30_358">
<rect width="50" height="50" fill="white"/>
</clipPath>
</defs>
</svg>
