<svg width="258" height="101" viewBox="0 0 258 101" fill="none" xmlns="http://www.w3.org/2000/svg">
<g clip-path="url(#clip0_17_214)">
<path d="M50.2707 19.0433L18.523 50.8154L50.2707 82.5875L82.0183 50.8154L50.2707 19.0433Z" stroke="#E68BEF" stroke-width="4.66" stroke-miterlimit="10"/>
<path d="M19.9262 58.6174L26.2684 64.361V93.3704H35.9274L41.9681 100.014H19.6246L19.9262 58.6174Z" fill="#6943FF"/>
<path d="M0.904602 58.0139V80.3745H14.4936V74.0325H7.2468V64.0592L0.904602 58.0139Z" fill="#6943FF"/>
<path d="M0.603088 42.0004V19.9415H41.9681L36.5355 26.2886H7.84988V35.3515L0.603088 42.0004Z" fill="#6943FF"/>
<path d="M26.5699 7.25235V15.1082H19.9261V0.905273H42.2696L36.2289 6.95059C36.2289 6.95059 26.1126 6.79971 26.5649 7.25235H26.5699Z" fill="#6943FF"/>
<path d="M58.879 1.20706H80.6194V41.6986L75.036 36.111V7.8559H65.2212C65.2212 7.8559 59.482 1.20706 58.879 1.20706Z" fill="#6943FF"/>
<path d="M85.1423 20.2432H99.6359V42.0003L93.8967 36.2568V25.9818H85.1423C85.1423 25.9818 84.5392 19.6347 85.1423 20.2382V20.2432Z" fill="#6943FF"/>
<path d="M93.2987 74.0325V64.9695L99.9425 58.3207V80.9831H57.6729L64.0151 74.636C64.0151 74.636 93.3038 74.3342 93.3038 74.0325H93.2987Z" fill="#6943FF"/>
<path d="M74.2771 93.6722V85.5145H80.6193V100.019H57.9744L64.1658 93.8231C64.1658 93.8231 74.5837 93.6722 74.2822 93.6722H74.2771Z" fill="#6943FF"/>
<path d="M0 49.5545L18.7201 30.82H28.0776L8.75445 50.158L15.6997 57.1086V65.8698L0 49.5545Z" fill="#E68BEF"/>
<path d="M50.1195 91.2531L56.3109 85.0569H65.8242L49.8984 100.995L30.6506 81.7324V72.5186C30.6506 72.5186 50.5768 90.8004 50.1245 91.2531H50.1195Z" fill="#E68BEF"/>
<path d="M91.183 50.4598L84.9915 44.2636V34.4412L101.219 50.6811L81.9712 69.9436H72.4579C72.4579 69.9436 90.8764 50.153 91.1779 50.4547L91.183 50.4598Z" fill="#E68BEF"/>
<path d="M50.421 9.06294L44.0788 15.41H35.0228L50.421 0L70.0457 19.6397V28.0991C70.0457 28.0991 50.7225 9.3647 50.421 9.06294Z" fill="#E68BEF"/>
<path d="M110.26 60.1413C109.591 60.1413 109.049 59.9854 108.622 59.6786C108.194 59.3718 107.978 59.0348 107.978 58.6778V44.6156C107.978 44.1881 108.194 43.8411 108.622 43.5796C109.049 43.318 109.596 43.1873 110.26 43.1873C110.828 43.1873 111.31 43.318 111.702 43.5796C112.094 43.8411 112.29 44.1881 112.29 44.6156V45.6869C112.647 44.9978 113.235 44.3742 114.054 43.8109C114.873 43.2527 115.878 42.971 117.069 42.971C118.185 42.971 119.21 43.2979 120.135 43.9517C121.06 44.6056 121.803 45.4807 122.361 46.5771C122.919 47.6735 123.201 48.8856 123.201 50.2183V58.6778C123.201 59.1556 122.964 59.5177 122.487 59.7641C122.01 60.0156 121.477 60.1413 120.884 60.1413C120.361 60.1413 119.849 60.0156 119.351 59.7641C118.853 59.5126 118.602 59.1505 118.602 58.6778V50.2183C118.602 49.6701 118.467 49.1622 118.19 48.6844C117.919 48.2066 117.542 47.8093 117.064 47.4874C116.587 47.1655 116.064 47.0046 115.496 47.0046C115.019 47.0046 114.557 47.1353 114.104 47.3969C113.652 47.6584 113.285 48.0255 112.999 48.5033C112.712 48.9811 112.572 49.5494 112.572 50.2183V58.6778C112.572 59.0348 112.345 59.3668 111.893 59.6786C111.441 59.9904 110.893 60.1413 110.255 60.1413H110.26Z" fill="#6943FF"/>
<path d="M134.221 60.4632C132.794 60.4632 131.493 60.1262 130.317 59.4473C129.141 58.7683 128.201 57.8781 127.497 56.7716C126.794 55.6652 126.447 54.4833 126.447 53.2209V44.6559C126.447 44.2988 126.678 43.9668 127.141 43.655C127.603 43.3482 128.146 43.1923 128.764 43.1923C129.382 43.1923 129.915 43.3482 130.367 43.655C130.819 43.9668 131.045 44.2988 131.045 44.6559V53.2209C131.045 53.7691 131.186 54.2821 131.473 54.7549C131.759 55.2327 132.136 55.63 132.613 55.9519C133.091 56.2737 133.613 56.4347 134.181 56.4347C134.749 56.4347 135.302 56.2788 135.769 55.972C136.232 55.6652 136.609 55.2578 136.895 54.7599C137.182 54.262 137.322 53.749 137.322 53.2259V44.6257C137.322 44.2435 137.553 43.9115 138.016 43.6248C138.478 43.3382 139.006 43.1974 139.604 43.1974C140.292 43.1974 140.85 43.3382 141.277 43.6248C141.704 43.9115 141.921 44.2435 141.921 44.6257V53.2259C141.921 54.5084 141.569 55.7054 140.87 56.8119C140.167 57.9183 139.232 58.8035 138.051 59.4724C136.875 60.1363 135.598 60.4733 134.216 60.4733L134.221 60.4632Z" fill="#6943FF"/>
<path d="M147.559 60.1413C146.916 60.1413 146.383 59.9854 145.956 59.6786C145.529 59.3718 145.313 59.0349 145.313 58.6778V44.6156C145.313 44.1881 145.529 43.8411 145.956 43.5796C146.383 43.318 146.921 43.1873 147.559 43.1873C148.152 43.1873 148.645 43.318 149.037 43.5796C149.429 43.8411 149.625 44.1881 149.625 44.6156V46.0792C149.886 45.5561 150.238 45.0632 150.675 44.6005C151.117 44.1378 151.62 43.7506 152.193 43.4387C152.766 43.132 153.369 42.976 154.012 42.976H155.118C155.57 42.976 155.962 43.1722 156.294 43.5645C156.625 43.9568 156.791 44.4245 156.791 44.9727C156.791 45.5209 156.625 46.0238 156.294 46.4161C155.962 46.8084 155.57 47.0046 155.118 47.0046H154.012C153.344 47.0046 152.7 47.2259 152.067 47.6634C151.439 48.106 150.921 48.7095 150.514 49.4841C150.112 50.2586 149.906 51.189 149.906 52.2854V58.6727C149.906 59.0298 149.68 59.3618 149.228 59.6736C148.775 59.9854 148.218 60.1363 147.554 60.1363L147.559 60.1413Z" fill="#6943FF"/>
<path d="M164.179 60.4632C162.988 60.4632 161.902 60.3123 160.917 60.0156C159.932 59.7188 159.158 59.3316 158.6 58.8538C158.042 58.376 157.761 57.8881 157.761 57.3902C157.761 57.1539 157.826 56.8722 157.957 56.5503C158.088 56.2285 158.264 55.9518 158.49 55.7104C158.716 55.474 158.982 55.3533 159.294 55.3533C159.626 55.3533 159.977 55.4891 160.344 55.7657C160.711 56.0373 161.178 56.3089 161.736 56.5704C162.294 56.832 163.073 56.9627 164.073 56.9627C165.144 56.9627 165.852 56.7968 166.194 56.4648C166.541 56.1329 166.711 55.7859 166.711 55.4288C166.711 54.9057 166.5 54.5034 166.088 54.2167C165.671 53.93 165.144 53.6936 164.5 53.5025C163.857 53.3114 163.174 53.1153 162.45 52.9141C161.726 52.7129 161.043 52.4363 160.399 52.0943C159.756 51.7473 159.234 51.2745 158.831 50.666C158.429 50.0574 158.223 49.2678 158.223 48.2921C158.223 47.4371 158.424 46.6022 158.831 45.7925C159.234 44.9828 159.902 44.3139 160.827 43.7757C161.751 43.2426 163.013 42.971 164.606 42.971C165.581 42.971 166.5 43.0716 167.37 43.2728C168.239 43.4739 168.943 43.7556 169.491 44.1127C170.038 44.4698 170.31 44.8621 170.31 45.2896C170.31 45.5058 170.239 45.7824 170.094 46.1295C169.953 46.4765 169.757 46.7883 169.506 47.075C169.254 47.3617 168.953 47.5025 168.596 47.5025C168.335 47.5025 168.018 47.4119 167.651 47.2359C167.284 47.0599 166.862 46.8839 166.385 46.7179C165.907 46.5519 165.34 46.4664 164.671 46.4664C164.078 46.4664 163.601 46.5519 163.244 46.7179C162.887 46.8839 162.626 47.085 162.46 47.3264C162.294 47.5628 162.209 47.8143 162.209 48.0758C162.209 48.5033 162.41 48.8353 162.817 49.0767C163.219 49.3131 163.751 49.5193 164.405 49.6852C165.058 49.8512 165.747 50.0373 166.475 50.2385C167.199 50.4396 167.887 50.7364 168.546 51.1287C169.199 51.521 169.727 52.039 170.134 52.6827C170.541 53.3265 170.742 54.1815 170.742 55.2528C170.742 56.8219 170.179 58.0843 169.048 59.0348C167.918 59.9854 166.294 60.4632 164.179 60.4632Z" fill="#6943FF"/>
<path d="M181.507 60.4632C179.818 60.4632 178.325 60.1614 177.029 59.5529C175.732 58.9443 174.717 58.0893 173.978 56.9829C173.24 55.8764 172.873 54.5989 172.873 53.1454V50.1127C172.873 48.8302 173.225 47.6433 173.923 46.562C174.622 45.4807 175.561 44.6106 176.742 43.9568C177.918 43.303 179.235 42.976 180.682 42.976C182.014 42.976 183.23 43.2627 184.336 43.831C185.442 44.4044 186.341 45.189 187.03 46.1848C187.718 47.1806 188.065 48.3525 188.065 49.6802C188.065 50.7012 187.899 51.4355 187.567 51.873C187.236 52.3156 186.814 52.5872 186.301 52.6928C185.788 52.7984 185.261 52.8537 184.713 52.8537H177.476V53.3869C177.476 54.4078 177.863 55.2377 178.637 55.8663C179.411 56.495 180.416 56.8119 181.652 56.8119C182.436 56.8119 183.09 56.6912 183.612 56.4548C184.135 56.2184 184.587 55.9921 184.969 55.7758C185.351 55.5596 185.708 55.4539 186.04 55.4539C186.396 55.4539 186.703 55.5746 186.964 55.811C187.226 56.0474 187.427 56.329 187.572 56.6509C187.718 56.9728 187.788 57.2545 187.788 57.4908C187.788 57.8982 187.532 58.3307 187.02 58.7934C186.507 59.2561 185.783 59.6484 184.844 59.9703C183.904 60.2922 182.793 60.4531 181.512 60.4531L181.507 60.4632ZM177.476 50.1479H182.683C183.085 50.1479 183.366 50.0826 183.522 49.9518C183.678 49.821 183.753 49.5645 183.753 49.1823C183.753 48.6341 183.612 48.1462 183.326 47.7187C183.039 47.2913 182.662 46.9593 182.185 46.7179C181.708 46.4815 181.185 46.3608 180.617 46.3608C180.049 46.3608 179.557 46.4765 179.084 46.6978C178.607 46.9241 178.225 47.246 177.923 47.6634C177.627 48.0809 177.476 48.5737 177.476 49.1421V50.1429V50.1479Z" fill="#6943FF"/>
<path d="M209.509 50.6408C209.509 52.1044 209.258 53.4422 208.76 54.6492C208.262 55.8563 207.584 56.8923 206.725 57.7574C205.865 58.6224 204.86 59.2964 203.704 59.7691C202.548 60.2469 201.312 60.4833 199.985 60.4833C198.659 60.4833 197.443 60.2419 196.287 59.749C195.131 59.2561 194.121 58.5822 193.256 57.7121C192.392 56.842 191.708 55.806 191.211 54.5989C190.713 53.3969 190.462 52.0742 190.462 50.6358V34.0489H195.231V42.7598C195.488 42.4329 195.799 42.1462 196.161 41.8897C196.528 41.6332 196.92 41.427 197.347 41.261C197.769 41.1001 198.206 40.9743 198.664 40.8838C199.116 40.7983 199.558 40.7531 199.985 40.7531C201.307 40.7531 202.548 40.9995 203.704 41.4924C204.86 41.9853 205.865 42.6743 206.725 43.5594C207.584 44.4446 208.262 45.4857 208.76 46.6877C209.258 47.8897 209.509 49.2074 209.509 50.6358V50.6408ZM204.719 50.6408C204.719 49.9216 204.594 49.2477 204.343 48.6291C204.091 48.0054 203.755 47.4723 203.322 47.0197C202.89 46.567 202.393 46.2099 201.815 45.9585C201.242 45.702 200.629 45.5762 199.975 45.5762C199.322 45.5762 198.714 45.7171 198.136 46.0037C197.563 46.2904 197.061 46.6676 196.628 47.1353C196.196 47.6081 195.859 48.1462 195.618 48.7548C195.372 49.3634 195.251 49.9971 195.251 50.6458C195.251 51.365 195.372 52.034 195.618 52.6475C195.859 53.2611 196.196 53.7993 196.628 54.2519C197.056 54.7046 197.558 55.0616 198.136 55.3232C198.709 55.5847 199.322 55.7155 199.975 55.7155C200.629 55.7155 201.237 55.5847 201.815 55.3232C202.388 55.0616 202.89 54.7046 203.322 54.2519C203.75 53.7993 204.091 53.2661 204.343 52.6475C204.594 52.0289 204.719 51.365 204.719 50.6458V50.6408Z" fill="#E68BEF"/>
<path d="M216.926 60.1413H212.137V34.0539H216.926V60.1413Z" fill="#E68BEF"/>
<path d="M238.571 50.6408C238.571 52.034 238.32 53.3315 237.823 54.5336C237.325 55.7356 236.647 56.7767 235.787 57.6518C234.928 58.5269 233.923 59.2209 232.767 59.7239C231.611 60.2268 230.375 60.4833 229.048 60.4833C227.721 60.4833 226.505 60.2318 225.349 59.7239C224.193 59.2209 223.183 58.5269 222.319 57.6518C221.454 56.7767 220.771 55.7356 220.273 54.5336C219.776 53.3315 219.525 52.034 219.525 50.6408C219.525 49.2477 219.776 47.9099 220.273 46.7028C220.771 45.4958 221.454 44.4547 222.319 43.5745C223.183 42.6994 224.193 42.0104 225.349 41.5075C226.505 41.0096 227.736 40.7581 229.048 40.7581C230.36 40.7581 231.611 40.9945 232.767 41.4622C233.923 41.935 234.928 42.5988 235.787 43.4639C236.647 44.3289 237.325 45.37 237.823 46.5821C238.32 47.7942 238.571 49.1471 238.571 50.6358V50.6408ZM233.782 50.6408C233.782 49.8764 233.656 49.1823 233.41 48.5587C233.159 47.935 232.822 47.4019 232.39 46.9543C231.963 46.5067 231.46 46.1647 230.882 45.9283C230.309 45.6919 229.696 45.5712 229.043 45.5712C228.39 45.5712 227.782 45.6919 227.204 45.9283C226.631 46.1647 226.128 46.5117 225.706 46.9543C225.284 47.4019 224.947 47.935 224.706 48.5587C224.46 49.1823 224.339 49.8764 224.339 50.6408C224.339 51.36 224.46 52.0289 224.706 52.6425C224.947 53.2561 225.284 53.7942 225.706 54.2469C226.128 54.6995 226.631 55.0566 227.204 55.3181C227.777 55.5797 228.39 55.7104 229.043 55.7104C229.696 55.7104 230.304 55.5897 230.882 55.3433C231.455 55.1019 231.958 54.7549 232.39 54.3173C232.822 53.8797 233.159 53.3416 233.41 52.7129C233.661 52.0842 233.782 51.3952 233.782 50.6408Z" fill="#E68BEF"/>
<path d="M257.497 45.189L254.015 48.6894C253.839 48.2016 253.603 47.764 253.301 47.3717C253 46.9845 252.658 46.6525 252.281 46.386C251.904 46.1194 251.492 45.9132 251.055 45.7774C250.612 45.6366 250.16 45.5662 249.698 45.5662C249.05 45.5662 248.436 45.702 247.858 45.9685C247.286 46.2351 246.783 46.6123 246.361 47.0901C245.939 47.5729 245.602 48.1463 245.361 48.8051C245.115 49.469 244.994 50.1982 244.994 51.0029C244.994 51.6517 245.115 52.2653 245.361 52.8336C245.602 53.402 245.939 53.9049 246.361 54.3324C246.783 54.7599 247.286 55.0969 247.858 55.3433C248.431 55.5897 249.045 55.7104 249.698 55.7104C250.16 55.7104 250.607 55.6451 251.04 55.5193C251.467 55.3936 251.874 55.2075 252.251 54.9711C252.628 54.7347 252.964 54.443 253.261 54.101C253.557 53.759 253.799 53.3768 253.985 52.9594L257.467 56.4598C257.025 57.0885 256.517 57.6518 255.945 58.1497C255.372 58.6476 254.748 59.0751 254.08 59.4221C253.412 59.7691 252.708 60.0357 251.974 60.2168C251.241 60.3978 250.482 60.4883 249.703 60.4883C248.391 60.4883 247.16 60.2419 246.004 59.749C244.848 59.2562 243.838 58.5772 242.974 57.7172C242.109 56.8571 241.426 55.8513 240.928 54.7046C240.431 53.5528 240.18 52.3257 240.18 51.008C240.18 49.5796 240.431 48.2418 240.928 46.9996C241.426 45.7573 242.109 44.6709 242.974 43.7506C243.838 42.8302 244.848 42.0959 246.004 41.5628C247.16 41.0297 248.391 40.7631 249.703 40.7631C250.482 40.7631 251.246 40.8637 251.994 41.0599C252.743 41.256 253.457 41.5427 254.135 41.9199C254.814 42.2971 255.442 42.7598 256.015 43.303C256.588 43.8512 257.085 44.4748 257.502 45.1839L257.497 45.189Z" fill="#E68BEF"/>
<path d="M58.9694 42.8453C58.7533 42.8855 58.5825 42.9258 58.4066 42.9509C58.301 42.966 58.2407 43.0213 58.2508 43.1169C58.2709 43.4036 58.301 43.6902 58.3262 43.9769C58.3412 44.1378 58.3714 44.3038 58.3613 44.4648C58.3513 44.6458 58.4367 44.7363 58.5774 44.8067C58.9091 44.9677 59.2509 45.1186 59.5775 45.2896C59.9946 45.5058 60.4067 45.7322 60.8188 45.9585C60.9646 46.0389 61.1103 46.1194 61.2912 46.215C61.3364 45.8931 61.3264 45.6165 61.2912 45.3399C61.2761 45.2192 61.241 45.0985 61.2309 44.9777C61.2209 44.7917 61.2309 44.6005 61.2158 44.4145C61.2058 44.2585 61.1756 44.1077 61.1555 43.9518C61.1505 43.8964 61.1405 43.8461 61.1354 43.7908C61.1003 43.3885 61.0651 42.9861 61.0249 42.5838C61.0249 42.5536 61.0098 42.5234 60.9947 42.4932C60.8439 42.448 60.6982 42.458 60.5575 42.5134C60.4319 42.5636 60.3062 42.5737 60.1655 42.5486C60.1253 42.2619 60.0901 41.9752 60.0399 41.6936C59.9946 41.427 59.9343 41.1655 59.879 40.8989C59.879 40.8738 59.869 40.8537 59.864 40.8285C59.7635 40.2954 59.673 39.7623 59.5524 39.2342C59.4469 38.7765 59.3061 38.3239 59.1805 37.8662C59.1051 37.5896 59.0448 37.313 58.9594 37.0364C58.884 36.7799 58.7835 36.5334 58.693 36.2769C58.5975 36.0003 58.5171 35.7187 58.4166 35.442C58.2659 35.0397 58.1 34.6373 57.9392 34.235C57.7332 33.722 57.507 33.214 57.2206 32.7362C56.9944 32.359 56.7683 31.9768 56.4466 31.66C56.2556 31.4688 56.0597 31.2828 55.8586 31.0967C55.6174 30.8754 55.3259 30.7195 55.0194 30.6239C54.557 30.473 54.0846 30.3775 53.5972 30.5334C53.5469 30.5485 53.4916 30.5434 53.3811 30.5535C53.4665 30.4881 53.5017 30.4428 53.5519 30.4177C53.9791 30.1914 54.4314 30.0204 54.9189 30.0053C55.4315 29.9902 55.8938 30.1662 56.316 30.4428C56.8738 30.81 57.2708 31.323 57.6125 31.8812C57.8839 32.3188 58.1302 32.7765 58.3362 33.2492C58.5322 33.6918 58.7282 34.1394 58.8488 34.6172C58.9342 34.9492 59.08 35.271 59.1906 35.598C59.2358 35.7337 59.281 35.8796 59.3061 36.0204C59.3564 36.3071 59.482 36.5334 59.7233 36.7094C60.2761 37.1219 60.8238 37.5393 61.3666 37.9618C61.8289 38.3189 62.2863 38.686 62.7536 39.0431C63.1155 39.3197 63.4924 39.5863 63.8542 39.8629C64.2161 40.1395 64.5628 40.4362 64.9196 40.7128C65.2614 40.9794 65.6081 41.2309 65.9549 41.4924C66.0906 41.593 66.2212 41.7036 66.3569 41.8042C66.9499 42.2619 67.548 42.7196 68.141 43.1823C68.2214 43.2426 68.2918 43.313 68.3722 43.3885C68.2968 43.4689 68.2063 43.4438 68.1259 43.4438C67.2515 43.4438 66.377 43.4438 65.5026 43.4438C64.9649 43.4438 64.4271 43.4438 63.8894 43.4438C63.8291 43.4438 63.7638 43.4438 63.7035 43.4438C63.5628 43.4589 63.5276 43.4941 63.5125 43.6299C63.5125 43.6601 63.5125 43.6902 63.5125 43.7254C63.5125 45.0783 63.5125 46.4262 63.5125 47.7791C63.5125 47.9401 63.5527 48.0557 63.6934 48.1463C63.8693 48.2569 64.0352 48.3877 64.1909 48.5235C64.3668 48.6693 64.5327 48.8353 64.7136 48.9811C64.9146 49.1471 65.1257 49.308 65.3317 49.474C65.4272 49.5495 65.5328 49.6199 65.6182 49.7054C66.2062 50.2938 66.7942 50.8722 67.362 51.4757C67.6334 51.7624 67.8596 52.0893 68.0958 52.4011C68.1712 52.5017 68.2516 52.552 68.3671 52.5369C68.6838 52.5017 68.9903 52.5671 69.2918 52.6375C69.8748 52.7783 70.3773 53.075 70.7945 53.5076C71.1111 53.8345 71.3171 54.2368 71.483 54.6543C71.5935 54.9359 71.6136 55.2427 71.6237 55.5495C71.6287 55.9016 71.6237 56.2586 71.498 56.5856C71.3423 57.008 71.1362 57.4003 70.8246 57.7373C70.4326 58.1547 69.9703 58.4565 69.4275 58.6124C68.9652 58.7482 68.4878 58.7834 67.9953 58.6828C67.6636 58.6124 67.357 58.5118 67.0655 58.3458C66.4122 57.9787 65.9499 57.4556 65.6684 56.7465C65.4523 56.1983 65.4322 55.6451 65.5127 55.0918C65.5981 54.4984 65.8544 53.9552 66.3167 53.5025C66.3821 53.578 66.4625 53.6484 66.5178 53.7389C66.6886 54.0155 66.8494 54.2972 67.0153 54.5788C67.0756 54.6794 67.0907 54.78 67.0253 54.8856C66.9952 54.9409 66.9701 54.9963 66.95 55.0566C66.6434 55.8965 67.0706 56.8068 67.7942 57.1539C68.337 57.4154 68.9099 57.4104 69.4275 57.0986C69.8044 56.8672 70.0959 56.5202 70.1864 56.0575C70.2216 55.8915 70.2768 55.7155 70.2567 55.5545C70.2115 55.2075 70.1261 54.8705 69.8848 54.5939C69.6637 54.3475 69.4225 54.1513 69.1059 54.0357C68.8496 53.9401 68.5832 53.9502 68.3219 53.9703C68.1762 53.9803 68.1058 53.925 68.0455 53.8144C67.739 53.246 67.3771 52.718 66.9851 52.205C66.7338 51.8781 66.4826 51.5562 66.2062 51.2494C65.8594 50.8672 65.4926 50.5 65.1307 50.1278C64.9146 49.9065 64.6985 49.6903 64.4824 49.469C64.4774 49.464 64.4724 49.4539 64.4673 49.4539C64.1357 49.2829 63.9497 48.9258 63.603 48.7699C63.5778 48.7598 63.5577 48.7246 63.5326 48.7146C63.3718 48.6442 63.3567 48.4279 63.1456 48.3826C62.9848 48.3525 62.8542 48.1865 62.7084 48.0859C62.5627 47.9803 62.422 47.8747 62.2762 47.7741C62.1305 47.6735 61.9847 47.5679 61.834 47.4723C61.3716 47.1806 60.9143 46.8688 60.4369 46.6022C59.7534 46.22 59.0549 45.8478 58.3463 45.5109C57.7784 45.2393 57.1854 45.013 56.5974 44.7917C56.0597 44.5905 55.5169 44.4044 54.9741 44.2334C54.6676 44.1378 54.346 44.0775 54.0344 43.997C53.8283 43.9417 53.6223 43.8813 53.4162 43.8311C53.2504 43.7908 53.0846 43.7606 52.9137 43.7355C52.6222 43.6953 52.3307 43.6601 52.0342 43.6198C52.0041 43.6198 51.9689 43.6198 51.9387 43.6148C50.9135 43.4136 49.8783 43.4086 48.843 43.4488C48.6621 43.4538 48.4762 43.4991 48.2701 43.5293C48.2952 43.6248 48.3003 43.6953 48.3304 43.7506C48.4711 44.0171 48.6269 44.2736 48.7576 44.5452C48.8229 44.681 48.9033 44.7263 49.0491 44.7212C49.5466 44.7212 50.0491 44.7213 50.5467 44.7263C50.6623 44.7263 50.7728 44.7665 50.8884 44.7766C51.0643 44.7967 51.2452 44.8017 51.4211 44.8168C51.5618 44.8319 51.6975 44.852 51.8332 44.8721C51.8734 44.8772 51.9086 44.8922 51.9488 44.8973C52.2151 44.9325 52.4865 44.9627 52.7529 45.0079C52.9288 45.0381 53.0996 45.0783 53.2755 45.1236C53.8836 45.2795 54.4917 45.4304 55.0897 45.6115C55.5521 45.7523 56.0044 45.9233 56.4567 46.0943C56.7431 46.2049 57.0195 46.3508 57.301 46.4765C57.4366 46.5369 57.5774 46.5771 57.713 46.6374C57.904 46.728 58.0749 46.8537 58.2709 46.9241C58.5674 47.0247 58.8287 47.1856 59.0951 47.3315C59.6479 47.6383 60.1906 47.9652 60.7334 48.2871C60.9244 48.4028 61.1153 48.5285 61.2962 48.6593C61.7134 48.956 62.1305 49.2477 62.5375 49.5595C62.829 49.7808 63.1004 50.0272 63.3818 50.2586C63.4773 50.3391 63.5225 50.4346 63.5175 50.5654C63.5075 50.9627 63.5125 51.36 63.5125 51.7574C63.5125 55.801 63.5125 59.8496 63.5125 63.8932C63.5125 63.9536 63.5024 64.0139 63.5024 64.0693C63.3065 64.1296 56.2959 64.1397 56.0446 64.0793C56.12 63.9888 56.1903 63.9134 56.2506 63.8279C56.522 63.4356 56.7984 63.0433 57.0246 62.6208C57.2256 62.2537 57.3964 61.8765 57.5422 61.4842C57.6377 61.2176 57.708 60.941 57.7884 60.6694C57.8387 60.4984 57.8889 60.3274 57.9342 60.1564C57.9794 59.9603 58.0297 59.7641 58.0548 59.5629C58.1 59.2159 58.1503 58.8639 58.1553 58.5168C58.1553 58.2855 58.2156 58.0592 58.296 57.863C58.3764 57.6719 58.3814 57.4707 58.4468 57.2796C58.5272 57.0432 58.5272 56.7767 58.5724 56.5252C58.6478 56.1329 58.6277 55.7306 58.693 55.3433C58.7785 54.8605 58.7383 54.3777 58.7584 53.8999C58.7634 53.7641 58.7986 53.6735 58.9091 53.583C59.2006 53.3416 59.482 53.0851 59.7534 52.8236C60.06 52.5268 60.2962 52.1647 60.4972 51.7926C60.6882 51.4405 60.8339 51.0633 60.9847 50.6911C61.0399 50.5503 61.06 50.3944 61.0952 50.2435C61.1304 50.0775 61.1606 49.9065 61.1907 49.7406C61.2209 49.5847 61.1656 49.474 61.0349 49.3835C60.9043 49.2879 60.7887 49.1773 60.663 49.0717C60.648 49.0566 60.6278 49.0465 60.6077 49.0365C60.266 48.8504 59.9193 48.6643 59.5624 48.4681C59.6177 48.4229 59.6479 48.3977 59.6881 48.3625C59.6579 48.3474 59.6278 48.3223 59.6077 48.3273C59.3916 48.3575 59.2157 48.2619 59.0398 48.1563C58.9142 48.0809 58.7885 48.0054 58.6578 47.935C58.6076 47.9099 58.5423 47.9099 58.4619 47.8898C58.4518 47.9903 58.4417 48.0658 58.4367 48.1412C58.4116 48.4933 58.3764 48.8403 58.3664 49.1924C58.3563 49.5344 58.2608 49.8462 58.1503 50.163C58.095 50.3139 58.0196 50.4497 57.899 50.5654C57.7734 50.6861 57.6879 50.847 57.5723 50.9778C57.4618 51.1035 57.3462 51.2444 57.2055 51.3299C56.8989 51.5109 56.5873 51.6819 56.2607 51.8076C56.0496 51.8881 55.8084 51.9032 55.5772 51.9183C55.3058 51.9334 55.0294 51.9434 54.758 51.9082C54.5269 51.8781 54.2907 51.8026 54.0746 51.702C53.5821 51.4807 53.2001 51.1236 52.9087 50.671C52.8785 50.6257 52.8383 50.5905 52.7981 50.5553C52.6976 50.4648 52.5719 50.3894 52.5518 50.2334C52.5518 50.2133 52.5368 50.1882 52.5167 50.1731C52.1699 49.8915 51.9438 49.5092 51.6774 49.1622C51.4211 48.8252 51.195 48.4631 50.9638 48.106C50.617 47.5679 50.2753 47.0197 49.9336 46.4815C49.8431 46.3407 49.7526 46.1999 49.6521 46.044C49.4662 46.1295 49.3003 46.1999 49.1345 46.2804C48.9335 46.3759 48.9284 46.3759 48.8179 46.1798C48.637 45.8579 48.456 45.536 48.2751 45.2091C48.0791 44.857 47.8831 44.51 47.7022 44.1529C47.4459 43.65 47.2047 43.142 46.9635 42.6341C46.677 42.0205 46.3956 41.4019 46.1242 40.7782C45.9986 40.4915 45.9081 40.1898 45.8076 39.893C45.7171 39.6315 45.6367 39.365 45.5614 39.0934C45.4659 38.7262 45.3955 38.3541 45.2849 37.9869C45.1945 37.6801 45.1945 37.3683 45.1794 37.0615C45.1643 36.6742 45.1593 36.2769 45.3101 35.9098C45.4608 35.5477 45.7071 35.256 46.0689 35.0648C46.7122 34.7178 47.4007 34.6172 48.1193 34.6625C48.2349 34.6675 48.3204 34.7228 48.4058 34.7933C48.7073 35.0447 49.044 35.1353 49.4209 34.9643C49.7979 34.7983 50.0089 34.4965 50.0341 34.0992C50.0692 33.556 49.5968 33.0481 49.0943 33.0682C48.8078 33.0782 48.5616 33.1134 48.3656 33.3498C48.2852 33.4504 48.1646 33.4554 48.0239 33.4303C47.853 33.4001 47.6721 33.4102 47.4962 33.4102C47.3957 33.4102 47.2952 33.4454 47.1946 33.4504C46.3855 33.4957 45.6568 33.7773 45.0136 34.2652C44.5965 34.582 44.305 35.0196 44.119 35.5125C44.0487 35.6885 44.0587 35.8947 43.9934 36.0757C43.8426 36.4882 43.923 36.9106 43.913 37.3281C43.913 37.4337 43.9532 37.5393 43.9733 37.6449C43.9733 37.6701 43.9884 37.6902 43.9934 37.7103C44.0286 37.9618 44.0537 38.2183 44.104 38.4647C44.1442 38.6659 44.1994 38.8671 44.2547 39.0682C44.2949 39.2091 44.3351 39.3499 44.3804 39.4907C44.4658 39.7573 44.5462 40.0238 44.6367 40.2904C44.7472 40.6173 44.8678 40.9442 44.9884 41.2661C45.0839 41.5175 45.1844 41.769 45.29 42.0154C45.3905 42.2569 45.501 42.4932 45.6116 42.7296C45.9634 43.4488 46.3051 44.1781 46.677 44.8872C46.9936 45.4958 47.3404 46.0892 47.6771 46.6877C47.7123 46.7531 47.7424 46.8286 47.7826 46.9141C47.6067 47.08 47.3605 47.1404 47.1343 47.2963C47.1595 47.3516 47.1796 47.412 47.2147 47.4673C47.4208 47.8093 47.6319 48.1513 47.8379 48.4933C47.8882 48.5788 47.9284 48.6743 47.9786 48.7598C48.0088 48.8152 48.044 48.8604 48.0791 48.9158C48.1545 49.0415 48.2349 49.1622 48.3103 49.2879C48.3405 49.3332 48.3555 49.3885 48.3907 49.4287C48.7375 49.8361 49.029 50.2837 49.3003 50.7414C49.3305 50.7967 49.3606 50.8521 49.4059 50.8923C49.7074 51.1538 49.8933 51.5059 50.1396 51.8127C50.5919 52.3709 51.0492 52.9242 51.5719 53.4221C52.0292 53.8546 52.5569 54.1564 53.1398 54.3827C53.4816 54.5185 53.8334 54.5889 54.1851 54.6794C54.5721 54.78 54.954 54.77 55.341 54.775C55.4666 54.775 55.542 54.8253 55.5973 54.9309C55.9541 55.5897 56.2506 56.2788 56.4969 56.9879C56.6175 57.345 56.7783 57.6971 56.8487 58.0592C56.9039 58.3257 56.8487 58.6174 56.8336 58.894C56.8336 58.9544 56.7984 59.0147 56.7884 59.0751C56.7482 59.3567 56.723 59.6434 56.6677 59.9251C56.6175 60.1715 56.5471 60.4179 56.4617 60.6594C56.3612 60.9511 56.2456 61.2377 56.125 61.5194C55.9039 62.0424 55.6124 62.5202 55.2656 62.9678C54.6475 63.7574 53.9188 64.4213 53.0343 64.9041C52.6323 65.1204 52.2302 65.3216 51.798 65.4775C51.4563 65.6032 51.1095 65.6988 50.7577 65.7843C50.3406 65.8849 49.9285 65.9603 49.4963 65.9754C49.225 65.9855 48.9536 66.0207 48.6822 66.0458C48.652 66.0458 48.6219 66.0458 48.5867 66.0257C49.3657 65.9352 50.1094 65.7088 50.8331 65.4121C51.5568 65.1154 52.2302 64.7331 52.8182 64.195C52.7227 64.0844 52.6222 64.1145 52.5368 64.1145C51.8332 64.1145 51.1346 64.1145 50.4311 64.1145C48.0138 64.1145 45.5965 64.1145 43.1742 64.1145C42.9431 64.1145 42.7672 64.0492 42.5862 63.8983C42.2546 63.6267 41.938 63.345 41.6565 63.0232C41.2294 62.5353 40.8173 62.0324 40.5007 61.454C40.3197 61.1221 40.1288 60.8002 39.9679 60.4632C39.8423 60.1967 39.7569 59.915 39.6614 59.6384C39.5559 59.3316 39.4553 59.0198 39.3699 58.708C39.3146 58.5018 39.2845 58.2855 39.2443 58.0743C39.184 57.7624 39.1186 57.4506 39.0734 57.1388C39.0483 56.9628 39.0684 56.7817 39.0533 56.6006C39.0282 56.1983 38.9528 55.7909 38.9829 55.3936C39.0131 55.0214 39.0332 54.6492 39.0583 54.2771C39.0835 53.92 39.0985 53.5629 39.1639 53.2108C39.2694 52.6576 39.39 52.1044 39.5458 51.5612C39.6413 51.2242 39.8122 50.9074 39.9529 50.5805C40.0484 50.3542 40.1187 50.1077 40.2494 49.9015C40.4504 49.5796 40.5911 49.2225 40.8524 48.9359C40.8826 48.9007 40.9027 48.8554 40.9228 48.8152C40.9479 48.7699 40.963 48.7095 40.9982 48.6743C41.3349 48.2921 41.6163 47.8696 42.0133 47.5427C42.1088 47.4623 42.1892 47.3667 42.2797 47.2812C42.6315 46.9543 43.0235 46.6827 43.4205 46.4212C43.7522 46.2049 44.0838 45.9987 44.4457 45.8478C44.898 45.6517 45.3603 45.4706 45.8177 45.2845C45.9684 45.2242 45.9785 45.2242 45.9081 45.0783C45.7724 44.8017 45.6367 44.5251 45.501 44.2435C45.4357 44.1026 45.3302 44.0624 45.1794 44.1328C44.8276 44.2938 44.4608 44.4245 44.109 44.5804C43.6014 44.8067 43.119 45.0783 42.6516 45.3851C42.1641 45.702 41.7068 46.054 41.2796 46.4463C40.8072 46.8839 40.365 47.3516 39.9981 47.8847C39.7368 48.2569 39.4755 48.6341 39.2191 49.0063C39.199 49.0314 39.189 49.0616 39.1739 49.0868C38.998 49.474 38.8071 49.8512 38.6613 50.2485C38.5457 50.5654 38.3899 50.8672 38.3296 51.2091C38.2744 51.5109 38.1487 51.7926 38.0784 52.0893C38.0231 52.3206 37.9979 52.5621 37.9577 52.7984C37.9025 53.1203 37.8371 53.4372 37.7969 53.759C37.7617 54.0306 37.7718 54.3022 37.7467 54.5788C37.6713 55.3886 37.7517 56.1983 37.7718 57.0131C37.7718 57.1136 37.807 57.2092 37.8271 57.3098C37.8371 57.355 37.8522 57.4003 37.8572 57.4456C37.8924 57.7473 37.9175 58.0491 37.9678 58.3458C38.003 58.5571 38.0784 58.7633 38.1336 58.9745C38.1688 59.1153 38.209 59.2562 38.2392 59.397C38.3598 59.9452 38.5809 60.4582 38.797 60.9712C39.1337 61.7658 39.576 62.5001 40.1036 63.1791C40.576 63.7927 41.1087 64.3559 41.7168 64.8438C42.1892 65.221 42.6817 65.5731 43.1943 65.8798C43.521 66.071 43.8728 66.2168 44.2145 66.3727C44.501 66.5035 44.7924 66.6343 45.089 66.7399C45.3553 66.8354 45.6367 66.8958 45.9131 66.9712C46.0438 67.0064 46.1795 67.0366 46.3152 67.0668C46.5313 67.112 46.7524 67.1523 46.9685 67.2126C46.6971 67.2378 46.4257 67.2478 46.1544 67.2026C46.0639 67.1875 45.9734 67.1623 45.878 67.1523C45.5312 67.1271 45.1895 67.0668 44.8528 66.9612C44.6216 66.8908 44.3804 66.8555 44.1492 66.7851C43.7823 66.6695 43.4205 66.5337 43.0637 66.3878C42.6918 66.2369 42.335 66.0609 41.9832 65.8698C41.4756 65.5932 40.9831 65.2813 40.5459 64.8941C40.3047 64.6829 40.0584 64.4716 39.8172 64.2503C39.7117 64.1548 39.6061 64.1095 39.4604 64.1095C38.5307 64.1145 37.606 64.1095 36.6762 64.1095C36.6059 64.1095 36.5405 64.1045 36.4451 64.0994C36.4451 63.9938 36.435 63.9033 36.435 63.8128C36.435 59.6484 36.435 55.4892 36.435 51.3248C36.435 48.8101 36.435 46.2954 36.435 43.7808C36.435 43.5494 36.3178 43.4337 36.0832 43.4337C34.6811 43.4337 33.274 43.4337 31.8718 43.4337C31.7814 43.4337 31.6909 43.4237 31.6005 43.4237C31.5954 43.4036 31.5904 43.3885 31.5854 43.3683C37.7115 38.6407 43.8426 33.9181 49.9637 29.1956C50.2954 29.3816 52.2302 30.8854 52.3408 31.0363C52.0694 31.2878 51.803 31.5443 51.5266 31.7907C51.4714 31.841 51.401 31.8812 51.3306 31.8913C50.4713 32.0422 50.3406 33.0028 50.7075 33.4806C50.9889 33.8427 51.5216 33.9886 51.9387 33.7622C52.1498 33.6466 52.3508 33.4856 52.4111 33.214C52.4413 33.0682 52.4765 32.9274 52.5267 32.7865C52.5518 32.7061 52.5971 32.6306 52.6524 32.5652C52.773 32.4244 52.9087 32.2937 53.0393 32.1629C53.4313 31.7605 53.9188 31.66 54.4465 31.7354C54.5822 31.7555 54.748 31.7807 54.8385 31.9265C54.6374 32.012 54.4465 32.0875 54.2655 32.173C54.0997 32.2534 54.0947 32.3037 54.2354 32.4345C54.361 32.5502 54.4967 32.6558 54.6324 32.7564C54.8686 32.9324 55.1048 33.1034 55.341 33.2794C55.5119 33.4102 55.6777 33.551 55.8436 33.6868C56.0697 33.8729 56.3009 34.0539 56.527 34.24C56.6125 34.3104 56.6577 34.406 56.7029 34.5066C56.9592 35.0749 57.1703 35.6633 57.3663 36.2568C57.4819 36.6189 57.6326 36.9659 57.7432 37.3281C57.8286 37.5997 57.8839 37.8813 57.9543 38.1579C57.9844 38.2836 58.0246 38.4094 58.0598 38.5351C58.1452 38.8469 58.2458 39.1537 58.3161 39.4655C58.3965 39.8226 58.4518 40.1797 58.5222 40.5418C58.5674 40.7631 58.6227 40.9794 58.6578 41.2007C58.7182 41.5527 58.7684 41.9048 58.8287 42.2619C58.8388 42.3323 58.8639 42.3977 58.879 42.4631C58.8991 42.5687 58.9141 42.6743 58.9393 42.8101L58.9694 42.8453ZM46.8228 52.9292C46.7423 52.9091 46.6871 52.889 46.6368 52.889C45.9282 52.889 45.2196 52.8789 44.506 52.8839C44.3401 52.8839 44.31 52.9242 44.305 53.1002C44.305 53.2561 44.305 53.412 44.305 53.5679C44.305 54.0306 44.305 54.4883 44.305 54.951C44.305 55.1321 44.2798 55.1522 44.104 55.1622C44.0487 55.1622 43.9934 55.1622 43.9381 55.1622C43.3853 55.1622 42.8325 55.1622 42.2747 55.1622H42.0334C41.9581 55.3986 41.9631 57.511 42.0334 57.7272C42.1138 57.7272 42.2093 57.7272 42.2998 57.7272C42.8827 57.7272 43.4707 57.7272 44.0537 57.7272C44.2849 57.7272 44.2949 57.7373 44.2949 57.9636C44.2949 58.542 44.2949 59.1204 44.2949 59.6937C44.2949 59.7641 44.2949 59.8345 44.305 59.9049C44.315 59.9904 44.3603 60.0508 44.4557 60.0508C45.1794 60.0508 45.9081 60.0508 46.6318 60.0508C46.7323 60.0508 46.7876 59.9854 46.8077 59.8949C46.8177 59.8345 46.8177 59.7692 46.8177 59.7088C46.8177 59.1405 46.8177 58.5671 46.8177 57.9988C46.8177 57.7323 46.8177 57.7272 47.0941 57.7272C47.662 57.7272 48.2349 57.7272 48.8028 57.7272C48.9033 57.7272 48.9988 57.7172 49.1194 57.7121C49.1244 57.6015 49.1345 57.511 49.1395 57.4204C49.1395 56.9426 49.1395 56.4699 49.1395 55.9921C49.1395 55.7909 49.1395 55.5847 49.1395 55.3835C49.1395 55.2075 49.1094 55.1824 48.9335 55.1723C48.833 55.1673 48.7325 55.1723 48.6269 55.1723C48.1143 55.1723 47.5967 55.1723 47.0841 55.1723C46.8378 55.1723 46.8228 55.1572 46.8177 54.9057C46.8177 54.3425 46.8177 53.7792 46.8177 53.2209C46.8177 53.1304 46.8177 53.0398 46.8177 52.9443L46.8228 52.9292Z" fill="#6943FF"/>
</g>
<defs>
<clipPath id="clip0_17_214">
<rect width="258" height="101" fill="white"/>
</clipPath>
</defs>
</svg>
