<svg width="165" height="210" viewBox="0 0 165 210" fill="none" xmlns="http://www.w3.org/2000/svg">
<g clip-path="url(#clip0_25_280)">
<path d="M81.9456 31.0184L30.1927 82.7755L81.9456 134.533L133.698 82.7755L81.9456 31.0184Z" stroke="#E68BEF" stroke-width="4.43" stroke-miterlimit="10"/>
<path d="M32.4828 95.4906L42.819 104.845V152.099H58.569L68.4138 162.927H31.9914L32.4828 95.4906Z" fill="#6943FF"/>
<path d="M1.47412 94.5078V130.933H23.6207V120.596H11.8103V104.353L1.47412 94.5078Z" fill="#6943FF"/>
<path d="M0.982788 68.4195V32.4855H68.4138L59.5518 42.8225H12.7931V57.591L0.982788 68.4195Z" fill="#6943FF"/>
<path d="M43.3103 11.8113V24.6055H32.4828V1.47424H68.9052L59.0603 11.3199C59.0603 11.3199 42.569 11.0699 43.3103 11.8113Z" fill="#6943FF"/>
<path d="M95.9742 1.9657H131.414V67.9194L122.31 58.8152V12.7942H106.31C106.31 12.7942 96.9569 1.9657 95.9742 1.9657Z" fill="#6943FF"/>
<path d="M138.793 32.9769H162.414V68.4195L153.06 59.0653V42.3311H138.784C138.784 42.3311 137.802 31.9941 138.784 32.9769H138.793Z" fill="#6943FF"/>
<path d="M152.086 120.596V105.828L162.914 94.9991V131.916H94.0086L104.345 121.579C104.345 121.579 152.086 121.087 152.086 120.596Z" fill="#6943FF"/>
<path d="M121.078 152.59V139.296H131.414V162.919H94.5L104.586 152.831C104.586 152.831 121.569 152.581 121.078 152.581V152.59Z" fill="#6943FF"/>
<path d="M0 80.7221L30.5172 50.2024H45.7759L14.2759 81.705L25.5948 93.0335V107.302L0 80.7221Z" fill="#E68BEF"/>
<path d="M81.6983 148.65L91.7845 138.563H107.284L81.319 164.531L49.9397 133.149V118.139C49.9397 118.139 82.4224 147.917 81.681 148.659L81.6983 148.65Z" fill="#E68BEF"/>
<path d="M148.638 82.205L138.552 72.118V56.1167L165.009 82.5758L133.629 113.958H118.129C118.129 113.958 148.155 81.7136 148.647 82.2137L148.638 82.205Z" fill="#E68BEF"/>
<path d="M82.1983 14.7685L71.8621 25.1055H57.0948L82.1983 0L114.19 31.994V45.7796C114.19 45.7796 82.6897 15.2599 82.1983 14.7685Z" fill="#E68BEF"/>
<path d="M5.23278 200.146C4.51726 200.146 3.93105 199.982 3.46553 199.646C3.00002 199.309 2.77588 198.956 2.77588 198.568V183.455C2.77588 182.998 3.00864 182.627 3.46553 182.343C3.92243 182.058 4.51726 181.92 5.23278 181.92C5.84484 181.92 6.36209 182.058 6.7845 182.343C7.20691 182.627 7.41381 182.998 7.41381 183.455V184.601C7.79312 183.86 8.43105 183.187 9.31036 182.584C10.1897 181.98 11.2759 181.679 12.5517 181.679C13.75 181.679 14.8535 182.032 15.8535 182.731C16.8535 183.437 17.6466 184.377 18.25 185.55C18.8535 186.722 19.1466 188.033 19.1466 189.464V198.559C19.1466 199.068 18.8879 199.465 18.3793 199.732C17.8707 199.999 17.2931 200.137 16.6552 200.137C16.0948 200.137 15.5431 199.999 15.0086 199.732C14.4742 199.465 14.2069 199.077 14.2069 198.559V189.464C14.2069 188.878 14.0604 188.326 13.7673 187.817C13.4742 187.308 13.069 186.877 12.5604 186.533C12.0517 186.188 11.4828 186.015 10.8707 186.015C10.3621 186.015 9.86209 186.153 9.37071 186.438C8.87933 186.722 8.4914 187.119 8.18105 187.627C7.87071 188.136 7.72415 188.757 7.72415 189.472V198.568C7.72415 198.956 7.48278 199.309 7.00002 199.646C6.51726 199.982 5.92243 200.146 5.23278 200.146Z" fill="#6943FF"/>
<path d="M31.0086 200.491C29.4741 200.491 28.0776 200.129 26.8103 199.396C25.5431 198.663 24.5345 197.706 23.7759 196.516C23.0172 195.326 22.6465 194.059 22.6465 192.697V183.489C22.6465 183.101 22.8965 182.748 23.3965 182.412C23.8965 182.084 24.4741 181.911 25.1379 181.911C25.8017 181.911 26.3793 182.075 26.8621 182.412C27.3448 182.748 27.5948 183.101 27.5948 183.489V192.697C27.5948 193.283 27.75 193.835 28.0517 194.344C28.3621 194.852 28.7672 195.283 29.2759 195.628C29.7845 195.973 30.3534 196.145 30.9655 196.145C31.5776 196.145 32.1724 195.982 32.6724 195.645C33.1724 195.318 33.5776 194.878 33.8793 194.344C34.1896 193.809 34.3362 193.257 34.3362 192.697V183.455C34.3362 183.05 34.5862 182.687 35.0862 182.377C35.5862 182.067 36.1552 181.92 36.7931 181.92C37.5345 181.92 38.1379 182.075 38.5948 182.377C39.0517 182.687 39.2845 183.041 39.2845 183.455V192.697C39.2845 194.076 38.9052 195.361 38.1552 196.551C37.4052 197.74 36.3879 198.689 35.1293 199.404C33.8621 200.12 32.4914 200.482 31.0086 200.482V200.491Z" fill="#6943FF"/>
<path d="M45.3535 200.146C44.6638 200.146 44.0862 199.982 43.6293 199.646C43.1724 199.309 42.9397 198.956 42.9397 198.568V183.455C42.9397 182.998 43.1724 182.627 43.6293 182.343C44.0862 182.058 44.6638 181.92 45.3535 181.92C45.9914 181.92 46.5259 182.058 46.9483 182.343C47.3707 182.627 47.5776 182.998 47.5776 183.455V185.024C47.8621 184.463 48.2328 183.929 48.7069 183.429C49.181 182.929 49.7241 182.515 50.3362 182.179C50.9483 181.843 51.6035 181.679 52.2931 181.679H53.4828C53.9655 181.679 54.3879 181.894 54.75 182.308C55.1121 182.731 55.2845 183.239 55.2845 183.825C55.2845 184.412 55.1035 184.955 54.75 185.377C54.3879 185.8 53.9655 186.007 53.4828 186.007H52.2931C51.5776 186.007 50.8793 186.239 50.2069 186.714C49.5259 187.188 48.9741 187.843 48.5345 188.671C48.1035 189.498 47.8793 190.507 47.8793 191.68V198.542C47.8793 198.93 47.6379 199.284 47.1552 199.62C46.6724 199.956 46.069 200.12 45.3535 200.12V200.146Z" fill="#6943FF"/>
<path d="M63.2241 200.491C61.9483 200.491 60.7759 200.327 59.7155 200.008C58.6552 199.689 57.819 199.275 57.2241 198.758C56.6207 198.249 56.319 197.723 56.319 197.189C56.319 196.93 56.3879 196.628 56.5345 196.283C56.6724 195.939 56.8621 195.637 57.1121 195.378C57.3535 195.119 57.6466 194.999 57.9741 194.999C58.3362 194.999 58.7069 195.145 59.1034 195.438C59.5 195.732 60 196.016 60.6035 196.301C61.2069 196.585 62.0431 196.723 63.1121 196.723C64.2586 196.723 65.0259 196.542 65.3966 196.189C65.7672 195.826 65.9569 195.464 65.9569 195.076C65.9569 194.516 65.7328 194.076 65.2845 193.775C64.8362 193.464 64.2672 193.214 63.5776 193.007C62.8879 192.8 62.1552 192.593 61.3707 192.378C60.5862 192.162 59.8534 191.869 59.1638 191.498C58.4741 191.128 57.9138 190.619 57.4741 189.964C57.0431 189.309 56.819 188.464 56.819 187.412C56.819 186.489 57.0345 185.593 57.4741 184.731C57.9052 183.86 58.6207 183.136 59.6207 182.567C60.6207 181.989 61.9741 181.705 63.6897 181.705C64.7414 181.705 65.7241 181.817 66.6638 182.032C67.5948 182.248 68.3535 182.549 68.9483 182.929C69.5345 183.317 69.8276 183.731 69.8276 184.196C69.8276 184.429 69.75 184.731 69.5948 185.093C69.4397 185.464 69.2328 185.8 68.9655 186.11C68.6983 186.42 68.3707 186.567 67.9914 186.567C67.7069 186.567 67.3707 186.472 66.9741 186.283C66.5776 186.093 66.1207 185.903 65.6121 185.722C65.1035 185.541 64.4828 185.455 63.7672 185.455C63.1293 185.455 62.6207 185.541 62.2328 185.722C61.8535 185.903 61.569 186.119 61.3879 186.377C61.2069 186.636 61.1207 186.903 61.1207 187.179C61.1207 187.636 61.3362 187.998 61.7759 188.257C62.2069 188.515 62.7759 188.731 63.4828 188.912C64.1897 189.093 64.931 189.291 65.7069 189.507C66.4828 189.722 67.2241 190.041 67.931 190.464C68.6379 190.886 69.2069 191.438 69.6379 192.136C70.069 192.826 70.2931 193.749 70.2931 194.895C70.2931 196.585 69.681 197.939 68.4741 198.965C67.2586 199.991 65.5172 200.499 63.2414 200.499L63.2241 200.491Z" fill="#6943FF"/>
<path d="M81.8707 200.491C80.0517 200.491 78.4483 200.163 77.0603 199.516C75.6638 198.861 74.569 197.947 73.7845 196.758C72.9914 195.568 72.5948 194.197 72.5948 192.637V189.378C72.5948 187.998 72.9741 186.722 73.7241 185.558C74.4827 184.394 75.4914 183.463 76.75 182.756C78.0172 182.049 79.431 181.705 80.9914 181.705C82.4224 181.705 83.7328 182.015 84.9224 182.627C86.1121 183.239 87.0776 184.084 87.819 185.162C88.5603 186.239 88.931 187.49 88.931 188.921C88.931 190.024 88.75 190.809 88.3965 191.283C88.0345 191.757 87.5862 192.05 87.0345 192.162C86.4827 192.274 85.9138 192.335 85.3276 192.335H77.5431V192.912C77.5431 194.016 77.9569 194.904 78.7931 195.576C79.6293 196.249 80.7069 196.594 82.0345 196.594C82.8793 196.594 83.5776 196.464 84.1465 196.206C84.7069 195.947 85.1983 195.706 85.6034 195.482C86.0086 195.249 86.3965 195.137 86.75 195.137C87.1293 195.137 87.4655 195.266 87.75 195.516C88.0345 195.775 88.25 196.076 88.4052 196.421C88.5603 196.766 88.6379 197.068 88.6379 197.327C88.6379 197.758 88.3621 198.223 87.8103 198.723C87.2586 199.223 86.4828 199.646 85.4741 199.991C84.4655 200.335 83.2672 200.508 81.8879 200.508L81.8707 200.491ZM77.5345 189.404H83.1379C83.569 189.404 83.8707 189.335 84.0431 189.188C84.2069 189.05 84.2931 188.774 84.2931 188.36C84.2931 187.774 84.1379 187.248 83.8362 186.791C83.5259 186.334 83.1207 185.972 82.6121 185.714C82.1034 185.455 81.5345 185.334 80.9224 185.334C80.3103 185.334 79.7845 185.455 79.2759 185.696C78.7672 185.938 78.3448 186.283 78.0259 186.731C77.7069 187.179 77.5431 187.705 77.5431 188.326V189.404H77.5345Z" fill="#6943FF"/>
<path d="M111.983 189.938C111.983 191.507 111.716 192.947 111.181 194.249C110.647 195.551 109.914 196.663 108.991 197.594C108.069 198.525 106.983 199.249 105.741 199.758C104.5 200.266 103.164 200.525 101.741 200.525C100.319 200.525 99 200.266 97.7586 199.741C96.5172 199.215 95.431 198.482 94.5 197.551C93.569 196.611 92.8362 195.499 92.3017 194.206C91.7672 192.912 91.5 191.49 91.5 189.947V172.118H96.6293V181.48C96.9052 181.127 97.2414 180.817 97.6293 180.541C98.0172 180.265 98.4483 180.041 98.9052 179.868C99.3621 179.696 99.8362 179.558 100.319 179.463C100.81 179.368 101.284 179.325 101.741 179.325C103.164 179.325 104.5 179.592 105.741 180.118C106.983 180.653 108.069 181.386 108.991 182.334C109.914 183.282 110.647 184.403 111.181 185.696C111.716 186.989 111.983 188.403 111.983 189.938ZM106.836 189.938C106.836 189.162 106.698 188.446 106.431 187.774C106.164 187.11 105.793 186.533 105.336 186.041C104.871 185.558 104.336 185.17 103.716 184.894C103.095 184.619 102.44 184.481 101.741 184.481C101.043 184.481 100.379 184.636 99.7672 184.938C99.1466 185.248 98.6121 185.653 98.1466 186.153C97.681 186.662 97.319 187.239 97.0603 187.895C96.8017 188.55 96.6638 189.231 96.6638 189.929C96.6638 190.705 96.7931 191.421 97.0603 192.085C97.319 192.749 97.681 193.318 98.1466 193.809C98.6121 194.292 99.1466 194.68 99.7672 194.964C100.388 195.249 101.043 195.387 101.741 195.387C102.44 195.387 103.103 195.249 103.716 194.964C104.328 194.68 104.871 194.3 105.336 193.809C105.802 193.318 106.164 192.749 106.431 192.085C106.698 191.421 106.836 190.705 106.836 189.929V189.938Z" fill="#E68BEF"/>
<path d="M119.966 200.146H114.819V172.109H119.966V200.146Z" fill="#E68BEF"/>
<path d="M143.241 189.938C143.241 191.438 142.974 192.835 142.44 194.128C141.905 195.421 141.172 196.533 140.25 197.482C139.328 198.43 138.241 199.172 137 199.706C135.759 200.249 134.422 200.525 133 200.525C131.578 200.525 130.259 200.249 129.017 199.706C127.776 199.163 126.69 198.421 125.759 197.482C124.828 196.542 124.095 195.421 123.56 194.128C123.026 192.835 122.759 191.438 122.759 189.938C122.759 188.438 123.026 187.007 123.56 185.705C124.095 184.403 124.828 183.282 125.759 182.343C126.69 181.403 127.776 180.661 129.017 180.127C130.259 179.592 131.586 179.325 133 179.325C134.414 179.325 135.759 179.575 137 180.084C138.241 180.592 139.328 181.308 140.25 182.239C141.172 183.17 141.905 184.291 142.44 185.593C142.974 186.895 143.241 188.352 143.241 189.947V189.938ZM138.095 189.938C138.095 189.11 137.957 188.369 137.69 187.696C137.422 187.033 137.052 186.455 136.595 185.972C136.138 185.489 135.595 185.119 134.974 184.869C134.353 184.619 133.698 184.481 133 184.481C132.302 184.481 131.638 184.61 131.026 184.869C130.414 185.127 129.871 185.489 129.414 185.972C128.957 186.455 128.595 187.024 128.336 187.696C128.078 188.369 127.94 189.11 127.94 189.938C127.94 190.714 128.069 191.43 128.336 192.093C128.595 192.757 128.957 193.326 129.414 193.818C129.871 194.3 130.405 194.688 131.026 194.973C131.647 195.257 132.302 195.395 133 195.395C133.698 195.395 134.362 195.266 134.974 194.999C135.595 194.74 136.129 194.369 136.595 193.895C137.06 193.421 137.422 192.843 137.69 192.171C137.957 191.498 138.095 190.757 138.095 189.947V189.938Z" fill="#E68BEF"/>
<path d="M163.595 184.076L159.853 187.843C159.664 187.317 159.414 186.852 159.086 186.429C158.759 186.007 158.397 185.662 157.991 185.369C157.586 185.076 157.147 184.86 156.672 184.713C156.198 184.567 155.707 184.489 155.216 184.489C154.517 184.489 153.853 184.636 153.241 184.92C152.629 185.205 152.086 185.61 151.629 186.127C151.172 186.645 150.81 187.257 150.552 187.972C150.293 188.688 150.155 189.473 150.155 190.335C150.155 191.033 150.284 191.688 150.552 192.3C150.81 192.912 151.172 193.447 151.629 193.913C152.086 194.378 152.621 194.74 153.241 194.999C153.862 195.257 154.517 195.395 155.216 195.395C155.716 195.395 156.198 195.326 156.655 195.188C157.121 195.051 157.552 194.852 157.957 194.602C158.362 194.352 158.724 194.033 159.043 193.663C159.362 193.292 159.621 192.887 159.819 192.438L163.569 196.206C163.095 196.878 162.552 197.482 161.931 198.025C161.31 198.568 160.647 199.016 159.931 199.396C159.216 199.766 158.457 200.051 157.664 200.249C156.871 200.448 156.052 200.542 155.224 200.542C153.81 200.542 152.483 200.275 151.241 199.749C150 199.215 148.914 198.49 147.983 197.568C147.052 196.646 146.319 195.559 145.784 194.326C145.25 193.093 144.983 191.766 144.983 190.352C144.983 188.817 145.25 187.378 145.784 186.041C146.319 184.705 147.052 183.541 147.983 182.55C148.914 181.558 150 180.774 151.241 180.196C152.483 179.618 153.81 179.334 155.224 179.334C156.06 179.334 156.879 179.437 157.69 179.653C158.491 179.868 159.267 180.179 159.991 180.584C160.724 180.989 161.397 181.489 162.017 182.075C162.638 182.662 163.172 183.334 163.621 184.101L163.595 184.076Z" fill="#E68BEF"/>
<path d="M94.6724 70.7903C94.3448 70.8507 94.0776 70.911 93.8017 70.9541C93.6379 70.98 93.5517 71.0662 93.5603 71.2128C93.5948 71.6525 93.6379 72.0922 93.681 72.5318C93.7069 72.7819 93.75 73.0319 93.7328 73.2819C93.7155 73.5578 93.8448 73.7044 94.069 73.8078C94.5862 74.0578 95.1035 74.2906 95.6121 74.5493C96.2586 74.8855 96.8879 75.239 97.5259 75.5838C97.75 75.7045 97.9741 75.8252 98.2586 75.9804C98.3276 75.4804 98.3104 75.0579 98.2586 74.6355C98.2328 74.4458 98.181 74.2647 98.1724 74.0751C98.1552 73.7906 98.1724 73.4974 98.1466 73.2129C98.1293 72.9715 98.0862 72.7388 98.0517 72.4974C98.0431 72.4111 98.0259 72.3336 98.0172 72.2473C97.9569 71.6266 97.9052 71.0059 97.8448 70.3851C97.8448 70.342 97.819 70.2989 97.8017 70.2472C97.569 70.1782 97.3448 70.1954 97.1293 70.2817C96.931 70.3593 96.7414 70.3765 96.5259 70.3334C96.4655 69.8851 96.4138 69.454 96.3362 69.0229C96.2672 68.6091 96.1724 68.2039 96.0862 67.7987C96.0862 67.7642 96.069 67.7297 96.0604 67.6952C95.9052 66.8762 95.7673 66.0486 95.5776 65.2381C95.4138 64.5312 95.1983 63.8329 95.0086 63.1345C94.8966 62.7121 94.8017 62.281 94.6724 61.8586C94.5517 61.462 94.3966 61.0826 94.2672 60.686C94.1207 60.255 94 59.8239 93.8362 59.4015C93.6035 58.7807 93.3535 58.16 93.1035 57.5479C92.7845 56.7547 92.4397 55.9788 92 55.2459C91.6552 54.6597 91.3017 54.0734 90.8103 53.5906C90.5086 53.2975 90.2155 53.0044 89.9052 52.7285C89.5345 52.3836 89.0862 52.1509 88.6121 51.9957C87.8966 51.7629 87.1724 51.6163 86.4224 51.8491C86.3448 51.875 86.2586 51.8664 86.0862 51.8836C86.2155 51.7801 86.2759 51.7198 86.3448 51.6767C87.0086 51.3232 87.6983 51.0646 88.4569 51.0387C89.25 51.0128 89.9569 51.2801 90.6121 51.7198C91.4741 52.2888 92.0862 53.082 92.6121 53.9355C93.0259 54.608 93.4052 55.3149 93.7328 56.0391C94.0345 56.7202 94.3362 57.4099 94.5259 58.1427C94.6638 58.66 94.8793 59.1514 95.0517 59.6515C95.1207 59.867 95.1897 60.0825 95.2328 60.3067C95.3104 60.7464 95.5086 61.0913 95.8707 61.3671C96.7241 61.9965 97.5604 62.6431 98.4052 63.2983C99.1207 63.8501 99.8276 64.4191 100.543 64.9623C101.103 65.3933 101.681 65.7985 102.241 66.2296C102.793 66.6607 103.336 67.109 103.888 67.5401C104.414 67.9453 104.948 68.3419 105.483 68.7384C105.69 68.8936 105.897 69.0574 106.103 69.2212C107.017 69.9282 107.94 70.6351 108.853 71.3421C108.974 71.4369 109.086 71.549 109.207 71.6611C109.086 71.7904 108.948 71.7473 108.828 71.7473C107.483 71.7473 106.129 71.7473 104.784 71.7473C103.957 71.7473 103.121 71.7473 102.293 71.7473C102.198 71.7473 102.103 71.7473 102.009 71.7473C101.793 71.7732 101.733 71.8249 101.716 72.0318C101.716 72.0835 101.716 72.1266 101.716 72.1784C101.716 74.2561 101.716 76.3425 101.716 78.4203C101.716 78.6703 101.776 78.8427 102 78.9893C102.267 79.1617 102.526 79.36 102.767 79.5669C103.043 79.7911 103.293 80.0497 103.569 80.2739C103.879 80.5325 104.198 80.7825 104.517 81.0325C104.664 81.1532 104.828 81.2567 104.966 81.386C105.871 82.2913 106.784 83.1879 107.655 84.119C108.069 84.5587 108.422 85.0587 108.784 85.5502C108.897 85.7053 109.017 85.7829 109.207 85.7657C109.69 85.714 110.172 85.8088 110.629 85.9209C111.526 86.1364 112.302 86.5933 112.948 87.2658C113.431 87.7745 113.759 88.3866 114.009 89.0246C114.181 89.4557 114.216 89.9298 114.224 90.404C114.233 90.9472 114.224 91.4903 114.034 91.999C113.793 92.6456 113.474 93.2577 112.991 93.775C112.388 94.4216 111.672 94.8785 110.836 95.1285C110.121 95.3354 109.388 95.3958 108.629 95.2406C108.121 95.1372 107.647 94.9734 107.19 94.7233C106.181 94.1543 105.466 93.3525 105.034 92.2576C104.698 91.4127 104.672 90.5592 104.793 89.7143C104.922 88.8004 105.319 87.9642 106.034 87.2658C106.138 87.3865 106.259 87.49 106.345 87.6279C106.612 88.0504 106.853 88.4901 107.112 88.9211C107.207 89.0763 107.224 89.2315 107.129 89.3953C107.078 89.4815 107.043 89.5677 107.009 89.6539C106.534 90.9472 107.19 92.3438 108.31 92.8783C109.147 93.2749 110.034 93.2749 110.828 92.7921C111.414 92.4387 111.862 91.9041 112 91.1886C112.052 90.9299 112.138 90.6627 112.112 90.4126C112.043 89.8781 111.914 89.3608 111.534 88.9297C111.198 88.5504 110.819 88.2487 110.336 88.0676C109.94 87.921 109.534 87.9383 109.129 87.9728C108.905 87.99 108.793 87.9038 108.707 87.7314C108.233 86.8606 107.681 86.0416 107.069 85.257C106.681 84.757 106.293 84.257 105.871 83.7828C105.336 83.1879 104.767 82.6275 104.216 82.0585C103.888 81.7136 103.552 81.3774 103.216 81.0412C103.216 81.0412 103.198 81.0239 103.19 81.0153C102.672 80.7567 102.397 80.1963 101.862 79.9635C101.819 79.9463 101.793 79.8945 101.75 79.8773C101.5 79.7738 101.483 79.4376 101.155 79.3686C100.914 79.3169 100.707 79.0669 100.483 78.9117C100.259 78.7479 100.043 78.5841 99.819 78.4289C99.5948 78.2737 99.3707 78.1099 99.1379 77.9633C98.4224 77.5064 97.7241 77.0322 96.9828 76.6184C95.9224 76.0321 94.8535 75.4545 93.7586 74.9372C92.8793 74.5234 91.9741 74.1699 91.0603 73.8251C90.2328 73.5147 89.3966 73.2302 88.5517 72.9629C88.0776 72.8164 87.5862 72.7215 87.1035 72.6008C86.7845 72.5232 86.4655 72.4198 86.1466 72.3422C85.8879 72.2818 85.6293 72.2301 85.3707 72.1956C84.9224 72.1266 84.4655 72.0749 84.0172 72.0146C83.9655 72.0146 83.9224 72.0146 83.8707 72.0146C82.2931 71.7042 80.6983 71.7042 79.1035 71.7559C78.819 71.7645 78.5431 71.8335 78.2155 71.8852C78.2586 72.0318 78.2672 72.1353 78.3103 72.2301C78.5259 72.6353 78.7672 73.0319 78.9741 73.4543C79.0776 73.6612 79.1983 73.7302 79.4224 73.7302C80.1897 73.7302 80.9655 73.7302 81.7328 73.7388C81.9052 73.7388 82.0862 73.7992 82.2586 73.8164C82.5345 73.8423 82.8103 73.8509 83.0862 73.8854C83.3017 73.9026 83.5086 73.9371 83.7241 73.9716C83.7845 73.9716 83.8448 73.9975 83.8966 74.0061C84.3104 74.0578 84.7241 74.1096 85.1379 74.1699C85.4052 74.213 85.6724 74.282 85.9397 74.351C86.8707 74.5924 87.8104 74.8251 88.7414 75.101C89.4569 75.3166 90.1552 75.5752 90.8448 75.8511C91.2845 76.0235 91.7155 76.2477 92.1466 76.446C92.3535 76.5408 92.5776 76.6011 92.7845 76.696C93.0776 76.8339 93.3448 77.0322 93.6466 77.1357C94.1035 77.2909 94.5086 77.5409 94.9138 77.765C95.7672 78.2306 96.6035 78.7393 97.4397 79.2393C97.7328 79.4203 98.0259 79.61 98.3104 79.8083C98.9569 80.2652 99.5948 80.7222 100.224 81.1964C100.672 81.5326 101.095 81.9119 101.526 82.274C101.672 82.3947 101.741 82.5413 101.733 82.7396C101.724 83.3517 101.733 83.9638 101.733 84.5759C101.733 90.8092 101.733 97.0425 101.733 103.276C101.733 103.371 101.724 103.465 101.716 103.552C101.414 103.646 90.6035 103.664 90.2241 103.569C90.3362 103.431 90.4483 103.319 90.5431 103.181C90.9655 102.577 91.3879 101.974 91.7414 101.327C92.0517 100.758 92.319 100.181 92.5345 99.5772C92.681 99.1633 92.7931 98.7409 92.9138 98.3271C92.9914 98.0684 93.069 97.8012 93.1379 97.5339C93.2069 97.2322 93.2845 96.9304 93.319 96.62C93.3879 96.0855 93.4655 95.5424 93.4741 95.0078C93.4741 94.6457 93.5604 94.3009 93.6897 93.9991C93.8104 93.706 93.819 93.3956 93.9224 93.1025C94.0517 92.7318 94.0431 92.3266 94.1207 91.9386C94.2328 91.3351 94.2069 90.7144 94.3104 90.1195C94.4397 89.3694 94.3793 88.6366 94.4138 87.8952C94.4138 87.6883 94.4741 87.5503 94.6466 87.4124C95.0948 87.0417 95.5259 86.6451 95.9483 86.2399C96.4224 85.7829 96.7845 85.2312 97.0948 84.6535C97.3879 84.1104 97.6121 83.5328 97.8448 82.9551C97.931 82.7396 97.9655 82.4982 98.0086 82.2654C98.0604 82.0068 98.1035 81.7481 98.1552 81.4895C98.1983 81.2567 98.1121 81.0843 97.9138 80.9377C97.7155 80.7911 97.5345 80.6187 97.3448 80.4549C97.319 80.4291 97.2845 80.4118 97.2586 80.3946C96.7328 80.1101 96.1983 79.8169 95.6466 79.5238C95.7328 79.4462 95.7759 79.4117 95.8448 79.36C95.7931 79.3341 95.75 79.2996 95.7155 79.3083C95.3793 79.3514 95.1121 79.2048 94.8448 79.041C94.6466 78.9203 94.4569 78.8082 94.25 78.7048C94.1724 78.6617 94.0776 78.6617 93.9483 78.6358C93.931 78.791 93.9224 78.9031 93.9138 79.0238C93.8707 79.5583 93.819 80.1014 93.8017 80.636C93.7845 81.1619 93.6379 81.6447 93.4655 82.1275C93.3793 82.3602 93.2672 82.5672 93.0776 82.7482C92.8793 82.9293 92.75 83.1793 92.569 83.3776C92.3966 83.5759 92.2241 83.7914 92.0086 83.9207C91.5431 84.1966 91.0517 84.4639 90.5517 84.6535C90.2241 84.7829 89.8535 84.8001 89.5 84.826C89.0776 84.8518 88.6552 84.8691 88.2414 84.8087C87.8793 84.757 87.5172 84.6449 87.1897 84.4984C86.431 84.1621 85.8448 83.6103 85.3879 82.912C85.3448 82.843 85.2759 82.7913 85.2155 82.7396C85.0603 82.6016 84.8621 82.4896 84.8362 82.2482C84.8362 82.2137 84.8103 82.1792 84.7845 82.1533C84.25 81.7223 83.9052 81.1274 83.4914 80.5929C83.0948 80.0756 82.75 79.5152 82.3879 78.9634C81.8535 78.1358 81.3276 77.2909 80.8017 76.4546C80.6638 76.239 80.5259 76.0149 80.3707 75.7821C80.0862 75.9114 79.8276 76.0235 79.5776 76.1442C79.2672 76.2908 79.2586 76.2908 79.0862 75.989C78.8017 75.489 78.5259 74.9976 78.25 74.4975C77.9483 73.9544 77.6466 73.4199 77.3621 72.8681C76.9741 72.0922 76.5948 71.3076 76.2241 70.5231C75.7845 69.5747 75.3448 68.6177 74.931 67.6608C74.7414 67.2211 74.5948 66.7555 74.4397 66.2986C74.3017 65.8934 74.1724 65.4795 74.0604 65.0657C73.9138 64.4967 73.8017 63.9191 73.6379 63.3673C73.4914 62.8931 73.4914 62.4189 73.4741 61.9448C73.4483 61.3499 73.4397 60.7378 73.681 60.1688C73.9138 59.6084 74.2931 59.1687 74.8448 58.8669C75.8362 58.3324 76.8966 58.1772 78.0086 58.2462C78.1897 58.2548 78.319 58.341 78.4569 58.4531C78.9224 58.8411 79.4397 58.979 80.0259 58.7204C80.6035 58.4617 80.931 58.0048 80.9741 57.3927C81.0345 56.5564 80.3017 55.7805 79.5259 55.8063C79.0862 55.8236 78.6983 55.8753 78.4052 56.2374C78.2759 56.3926 78.0948 56.4012 77.8793 56.3667C77.6121 56.315 77.3362 56.3322 77.0603 56.3409C76.9052 56.3409 76.75 56.3926 76.5948 56.4012C75.3448 56.4702 74.2241 56.9013 73.2328 57.6599C72.5862 58.1514 72.1466 58.8238 71.8535 59.5825C71.75 59.8584 71.7586 60.1774 71.6638 60.4533C71.431 61.0913 71.5604 61.7379 71.5345 62.3845C71.5345 62.5483 71.5948 62.7121 71.6293 62.8759C71.6293 62.9104 71.6552 62.9449 71.6638 62.9793C71.7155 63.3673 71.7586 63.7553 71.8276 64.1432C71.8879 64.4536 71.9828 64.764 72.0603 65.0743C72.1207 65.2899 72.181 65.514 72.25 65.7296C72.3793 66.1434 72.5086 66.5486 72.6466 66.9624C72.819 67.4625 73 67.9711 73.1897 68.4712C73.3362 68.8591 73.4914 69.2471 73.6552 69.6264C73.8104 69.9972 73.9741 70.3679 74.1552 70.73C74.6983 71.8421 75.2241 72.9629 75.7931 74.0578C76.2845 74.9976 76.819 75.9114 77.3362 76.8339C77.3966 76.9374 77.4397 77.0495 77.5 77.1788C77.2328 77.4374 76.8448 77.5236 76.5 77.765C76.5345 77.8512 76.569 77.9461 76.6207 78.0323C76.9397 78.5582 77.2672 79.0841 77.5862 79.61C77.6638 79.7393 77.7241 79.8859 77.8017 80.0238C77.8448 80.1101 77.9052 80.179 77.9569 80.2652C78.0776 80.4549 78.1983 80.6446 78.3103 80.8343C78.3534 80.9032 78.3793 80.9894 78.431 81.0498C78.9655 81.6792 79.4224 82.3602 79.8362 83.0758C79.8879 83.162 79.931 83.2482 80 83.3086C80.4655 83.7138 80.75 84.257 81.1293 84.7311C81.8276 85.5933 82.5345 86.4468 83.3362 87.2141C84.0431 87.8779 84.8535 88.3435 85.75 88.697C86.2759 88.9039 86.819 89.016 87.3621 89.1539C87.9569 89.3091 88.5517 89.2918 89.1466 89.3005C89.3362 89.3005 89.4569 89.3781 89.5431 89.5419C90.0948 90.5592 90.5517 91.6196 90.9224 92.7145C91.1121 93.2663 91.3535 93.8008 91.4655 94.3699C91.5517 94.7837 91.4655 95.2234 91.4397 95.6544C91.4397 95.7493 91.3793 95.8355 91.3707 95.9303C91.3103 96.37 91.2759 96.8097 91.1897 97.2408C91.1121 97.6201 91 97.9995 90.8793 98.3702C90.7241 98.8185 90.5431 99.2582 90.3535 99.6979C90.0086 100.5 89.5603 101.241 89.0259 101.931C88.0776 103.155 86.9483 104.164 85.5862 104.914C84.9655 105.25 84.3448 105.552 83.681 105.793C83.1552 105.983 82.6207 106.138 82.0776 106.267C81.431 106.423 80.7931 106.543 80.1293 106.561C79.7069 106.569 79.2931 106.629 78.8793 106.673C78.8362 106.673 78.7845 106.673 78.7328 106.638C79.9397 106.492 81.0776 106.147 82.1897 105.69C83.3017 105.233 84.3362 104.647 85.25 103.81C85.1035 103.646 84.9483 103.681 84.819 103.681C83.7328 103.681 82.6552 103.681 81.569 103.681C77.8448 103.681 74.1121 103.681 70.3879 103.681C70.0259 103.681 69.7586 103.577 69.4828 103.353C68.9741 102.931 68.4828 102.5 68.0517 102C67.3879 101.241 66.75 100.474 66.2672 99.5858C65.9914 99.0771 65.6897 98.5771 65.4483 98.0598C65.2586 97.6546 65.1207 97.2149 64.9741 96.7838C64.8104 96.3097 64.6552 95.8355 64.5259 95.3527C64.4397 95.0337 64.3879 94.6975 64.3276 94.3699C64.2414 93.8871 64.1379 93.4129 64.069 92.9301C64.0345 92.6542 64.0603 92.3783 64.0431 92.1024C64.0086 91.4817 63.8879 90.8609 63.9397 90.2488C63.9828 89.6798 64.0172 89.1022 64.0517 88.5332C64.0862 87.9814 64.1121 87.4296 64.2155 86.8865C64.3793 86.033 64.5603 85.1794 64.8017 84.3432C64.9483 83.8259 65.2155 83.3345 65.431 82.8258C65.5776 82.4723 65.6897 82.1016 65.8879 81.7826C66.1983 81.2912 66.4138 80.7394 66.819 80.2997C66.8621 80.248 66.8966 80.179 66.931 80.1187C66.9741 80.0497 66.9914 79.9549 67.0431 79.8945C67.5603 79.3083 68 78.653 68.6035 78.1444C68.75 78.0237 68.8793 77.8771 69.0172 77.7478C69.5603 77.2391 70.1638 76.8253 70.7759 76.4287C71.2845 76.1011 71.8017 75.7821 72.3621 75.5407C73.0604 75.239 73.7672 74.9545 74.4741 74.6786C74.7069 74.5837 74.7241 74.5837 74.6121 74.3596C74.4052 73.9285 74.1897 73.5061 73.9828 73.075C73.8793 72.8595 73.7241 72.7905 73.4828 72.9026C72.9397 73.1526 72.3793 73.3509 71.8276 73.5923C71.0431 73.9371 70.3017 74.3596 69.5776 74.8338C68.8276 75.3252 68.1207 75.8597 67.4569 76.4718C66.7241 77.1443 66.0517 77.8685 65.4828 78.6875C65.0776 79.2652 64.681 79.8428 64.2845 80.4118C64.2586 80.4549 64.2414 80.498 64.2155 80.5411C63.9483 81.136 63.6466 81.7223 63.4224 82.3344C63.2414 82.8258 63.0086 83.2914 62.9052 83.8086C62.819 84.2656 62.6293 84.7139 62.5172 85.1708C62.431 85.5329 62.3966 85.9036 62.3362 86.2657C62.25 86.7572 62.1466 87.2486 62.0862 87.74C62.0345 88.1538 62.0431 88.5849 62.0086 88.9987C61.8966 90.2488 62.0086 91.4989 62.0517 92.749C62.0517 92.9042 62.1035 93.0508 62.1293 93.206C62.1466 93.2749 62.1724 93.3439 62.181 93.4129C62.2414 93.8784 62.2759 94.344 62.3535 94.8009C62.4052 95.1285 62.5172 95.4475 62.6035 95.7665C62.6638 95.9821 62.7241 96.1976 62.7672 96.4217C62.9483 97.2666 63.2931 98.0512 63.6293 98.8444C64.1466 100.069 64.8276 101.198 65.6379 102.25C66.3707 103.198 67.1897 104.06 68.1293 104.81C68.8535 105.397 69.6121 105.931 70.4138 106.405C70.9138 106.698 71.4569 106.923 71.9914 107.173C72.431 107.371 72.8793 107.578 73.3362 107.742C73.75 107.888 74.181 107.983 74.6035 108.095C74.8104 108.147 75.0172 108.199 75.2241 108.242C75.5604 108.311 75.8966 108.371 76.2328 108.466C75.8104 108.5 75.3966 108.518 74.9741 108.449C74.8362 108.423 74.6897 108.38 74.5517 108.371C74.0172 108.328 73.4914 108.242 72.9741 108.078C72.6207 107.966 72.25 107.914 71.8966 107.811C71.3276 107.638 70.7759 107.423 70.2241 107.198C69.6552 106.966 69.1035 106.698 68.5603 106.405C67.7759 105.974 67.0172 105.5 66.3448 104.905C65.9741 104.578 65.5948 104.25 65.2241 103.914C65.0604 103.767 64.8966 103.698 64.6724 103.698C63.2414 103.698 61.8103 103.698 60.3793 103.698C60.2759 103.698 60.1724 103.69 60.0259 103.681C60.0259 103.517 60.0086 103.379 60.0086 103.241C60.0086 96.8269 60.0086 90.4126 60.0086 83.9983C60.0086 80.1273 60.0086 76.2477 60.0086 72.3767C60.0086 72.0203 59.8276 71.8421 59.4655 71.8421C57.3017 71.8421 55.1379 71.8421 52.9741 71.8421C52.8362 71.8421 52.6983 71.8335 52.5603 71.8249C52.5517 71.799 52.5431 71.7732 52.5345 71.7473C61.9828 64.4622 71.431 57.1858 80.8707 49.9093C81.3793 50.1938 84.3621 52.513 84.5345 52.7457C84.1121 53.1337 83.6983 53.5303 83.2759 53.9096C83.1983 53.9872 83.0862 54.0476 82.9741 54.0648C81.6552 54.2976 81.4397 55.7805 82.0172 56.5133C82.4483 57.0737 83.2672 57.2978 83.9138 56.9444C84.2414 56.7633 84.5517 56.5133 84.6379 56.0995C84.681 55.8753 84.7414 55.6598 84.8103 55.4442C84.8535 55.3235 84.9224 55.2028 85 55.108C85.1897 54.8925 85.3966 54.6942 85.5948 54.4873C86.1983 53.8665 86.9483 53.7113 87.7672 53.832C87.9741 53.8665 88.2328 53.901 88.3793 54.1252C88.069 54.2545 87.7759 54.3752 87.4914 54.5045C87.2328 54.6252 87.2241 54.7028 87.4483 54.9011C87.6379 55.0735 87.8535 55.2373 88.0604 55.3925C88.4224 55.6684 88.7931 55.927 89.1466 56.1943C89.4138 56.3926 89.6638 56.6168 89.9224 56.8237C90.2759 57.1082 90.6293 57.3927 90.9741 57.6772C91.1035 57.7806 91.1724 57.9272 91.2414 58.091C91.6379 58.9704 91.9655 59.8756 92.2672 60.7895C92.4483 61.3413 92.6724 61.8844 92.8535 62.4448C92.9828 62.8586 93.069 63.2983 93.181 63.7208C93.2328 63.9191 93.2845 64.1087 93.3448 64.2984C93.4741 64.7726 93.6293 65.2468 93.7414 65.7382C93.8707 66.2813 93.9569 66.8417 94.0604 67.3935C94.1293 67.7297 94.2155 68.066 94.2759 68.4108C94.3707 68.954 94.4483 69.4971 94.5345 70.0403C94.5517 70.1437 94.5862 70.2472 94.6121 70.3506C94.6466 70.5144 94.6638 70.6696 94.7069 70.8852L94.6724 70.7903ZM75.9397 86.3261C75.8103 86.3002 75.7328 86.2571 75.6552 86.2571C74.5604 86.2571 73.4655 86.2399 72.3707 86.2485C72.1121 86.2485 72.069 86.3088 72.0603 86.5847C72.0603 86.8261 72.0603 87.0675 72.0603 87.3089C72.0603 88.0159 72.0603 88.7315 72.0603 89.4384C72.0603 89.7143 72.0259 89.7488 71.75 89.766C71.6638 89.766 71.5776 89.766 71.5 89.766C70.6466 89.766 69.7931 89.766 68.9397 89.766H68.569C68.4483 90.1281 68.4569 93.387 68.569 93.7146C68.6983 93.7146 68.8362 93.7146 68.9828 93.7146C69.8879 93.7146 70.7845 93.7146 71.6897 93.7146C72.0431 93.7146 72.0603 93.7319 72.0603 94.0767C72.0603 94.9647 72.0603 95.8527 72.0603 96.7494C72.0603 96.8614 72.0604 96.9649 72.0776 97.077C72.0948 97.2063 72.1638 97.3011 72.3103 97.3011C73.431 97.3011 74.5431 97.3011 75.6638 97.3011C75.819 97.3011 75.9052 97.2063 75.931 97.0597C75.9483 96.9649 75.9483 96.8701 75.9483 96.7752C75.9483 95.8958 75.9483 95.0165 75.9483 94.1371C75.9483 93.7319 75.9483 93.7146 76.3793 93.7146C77.2586 93.7146 78.1379 93.7146 79.0173 93.7146C79.1724 93.7146 79.319 93.6974 79.5086 93.6888C79.5172 93.5163 79.5345 93.3784 79.5345 93.2404C79.5345 92.5076 79.5345 91.7748 79.5345 91.042C79.5345 90.7316 79.5345 90.4126 79.5345 90.1023C79.5345 89.8264 79.4828 89.7919 79.2155 89.7746C79.0603 89.7746 78.9052 89.7746 78.75 89.7746C77.9569 89.7746 77.1638 89.7746 76.3707 89.7746C75.9914 89.7746 75.9655 89.7488 75.9655 89.3608C75.9655 88.4987 75.9655 87.6279 75.9655 86.7658C75.9655 86.6278 75.9655 86.4813 75.9655 86.3347L75.9397 86.3261Z" fill="#6943FF"/>
</g>
<defs>
<clipPath id="clip0_25_280">
<rect width="165" height="210" fill="white"/>
</clipPath>
</defs>
</svg>
